<svg width="27" height="34" viewBox="0 0 27 34" fill="none" xmlns="http://www.w3.org/2000/svg">
<path d="M22.6957 17.7895C22.7276 15.2086 24.0587 12.7664 26.1704 11.4145C24.8382 9.43341 22.6069 8.17732 20.2855 8.10169C17.8095 7.83106 15.4092 9.64448 14.1475 9.64448C12.8613 9.64448 10.9187 8.12856 8.82687 8.17337C6.10021 8.26511 3.55828 9.87938 2.2317 12.3617C-0.619915 17.5028 1.50713 25.0585 4.23874 29.2142C5.60543 31.2491 7.20269 33.5221 9.29267 33.4415C11.3378 33.3532 12.1017 32.0835 14.5704 32.0835C17.0162 32.0835 17.7328 33.4415 19.8652 33.3903C22.0597 33.3532 23.4424 31.3463 24.7612 29.2921C25.7431 27.8422 26.4987 26.2397 27 24.5439C24.421 23.4081 22.6987 20.7054 22.6957 17.7895Z" fill="#B2B2B2"/>
<path d="M18.6679 5.36871C19.8645 3.87293 20.454 1.95036 20.3113 0.00927734C18.4832 0.209215 16.7945 1.11902 15.5818 2.55741C14.3959 3.96279 13.7788 5.85154 13.8954 7.71843C15.7242 7.73803 17.522 6.85289 18.6679 5.36871Z" fill="#B2B2B2"/>
</svg>
