<svg width="27" height="32" viewBox="0 0 27 32" fill="none" xmlns="http://www.w3.org/2000/svg">
<path d="M0.588846 30.8661L14.4883 15.854L0.600491 0.868896C0.22955 1.1022 0 1.64238 0 2.34947V29.3999C0.0049749 30.107 0.226223 30.6077 0.588846 30.8661V30.8661Z" fill="#B2B2B2"/>
<path d="M14.986 15.44L19.1262 10.9678L2.26592 0.982506C1.98201 0.80434 1.65953 0.710233 1.33109 0.709717L14.9844 15.4382L14.986 15.44Z" fill="#B2B2B2"/>
<path d="M14.9866 16.2715L1.29004 31.0646C1.63381 31.0708 1.97242 30.9739 2.26812 30.7846L19.1617 20.7724L14.9866 16.2715Z" fill="#B2B2B2"/>
<path d="M25.2344 14.591L19.6237 11.262L15.3704 15.8562L19.6553 20.4792L25.2327 17.1591C26.4187 16.4538 26.4187 15.2927 25.2344 14.591Z" fill="#B2B2B2"/>
</svg>
